<?xml version="1.0" encoding="UTF-8" standalone="no"?>
<svg width="18px" height="18px" viewBox="0 0 18 18" version="1.1" xmlns="http://www.w3.org/2000/svg" xmlns:xlink="http://www.w3.org/1999/xlink">
    <!-- Generator: Sketch 42 (36781) - http://www.bohemiancoding.com/sketch -->
    <title>Shape</title>
    <desc>Created with Sketch.</desc>
    <defs></defs>
    <g id="Iconography" stroke="none" stroke-width="1" fill="none" fill-rule="evenodd">
        <g id="Icon-set" transform="translate(-371.000000, -177.000000)" fill-rule="nonzero" fill="#A7A7A7">
            <g id="Dropdown" transform="translate(109.000000, 152.000000)">
                <path d="M273.536364,34.2454545 C273.372727,34.0818182 273.372727,33.8363636 273.536364,33.6727273 L279.672727,27.5363636 C279.836364,27.3727273 279.918182,27.1272727 279.918182,26.9636364 C279.918182,26.8 279.836364,26.5545455 279.672727,26.3909091 L278.527273,25.2454545 C278.363636,25.0818182 278.118182,25 277.954545,25 C277.709091,25 277.545455,25.0818182 277.381818,25.2454545 L271.245455,31.3818182 C271.081818,31.5454545 270.836364,31.5454545 270.672727,31.3818182 L264.536364,25.2454545 C264.372727,25.0818182 264.127273,25 263.963636,25 C263.8,25 263.554545,25.0818182 263.390909,25.2454545 L262.245455,26.3909091 C262.081818,26.5545455 262,26.8 262,26.9636364 C262,27.1272727 262.081818,27.3727273 262.245455,27.5363636 L268.381818,33.6727273 C268.545455,33.8363636 268.545455,34.0818182 268.381818,34.2454545 L262.245455,40.3818182 C262.081818,40.5454545 262,40.7909091 262,40.9545455 C262,41.1181818 262.081818,41.3636364 262.245455,41.5272727 L263.390909,42.6727273 C263.554545,42.8363636 263.8,42.9181818 263.963636,42.9181818 C264.127273,42.9181818 264.372727,42.8363636 264.536364,42.6727273 L270.672727,36.5363636 C270.836364,36.3727273 271.081818,36.3727273 271.245455,36.5363636 L277.381818,42.6727273 C277.545455,42.8363636 277.790909,42.9181818 277.954545,42.9181818 C278.118182,42.9181818 278.363636,42.8363636 278.527273,42.6727273 L279.672727,41.5272727 C279.836364,41.3636364 279.918182,41.1181818 279.918182,40.9545455 C279.918182,40.7909091 279.836364,40.5454545 279.672727,40.3818182 L273.536364,34.2454545 Z" id="Shape"></path>
            </g>
        </g>
    </g>
</svg>