<?xml version="1.0" encoding="UTF-8" standalone="no"?>
<svg width="34px" height="23px" viewBox="0 0 34 23" version="1.1" xmlns="http://www.w3.org/2000/svg" xmlns:xlink="http://www.w3.org/1999/xlink">
    <!-- Generator: Sketch 42 (36781) - http://www.bohemiancoding.com/sketch -->
    <title>new-email-outline</title>
    <desc>Created with Sketch.</desc>
    <defs></defs>
    <g id="Iconography" stroke="none" stroke-width="1" fill="none" fill-rule="evenodd">
        <g id="Icon-set" transform="translate(-128.000000, -327.000000)" fill-rule="nonzero" stroke="#000000" fill="#000000">
            <g id="Dropdown" transform="translate(109.000000, 152.000000)">
                <g id="Group-8" transform="translate(20.000000, 176.000000)">
                    <g id="new-email-outline">
                        <g id="Capa_1">
                            <g id="Shape_17">
                                <path d="M31.9477977,2.67629851 C31.9477977,1.99379851 31.6784339,1.37633582 31.2486525,0.905559701 C31.2415008,0.896208955 31.2398825,0.885186567 31.2321566,0.875783582 C31.2250049,0.867529851 31.2150865,0.864186567 31.2073605,0.856507463 C30.7186949,0.344880597 30.0300424,0.0213134328 29.2631909,0.0213134328 L2.68512887,0.0213134328 C1.91827732,0.0213134328 1.2296248,0.344880597 0.739862969,0.856507463 C0.732711256,0.864186567 0.722218597,0.867529851 0.715066884,0.876358209 C0.707340946,0.885186567 0.705722675,0.896731343 0.698570962,0.906134328 C0.269415987,1.37691045 0,1.99379851 0,2.67629851 L0,18.3242239 C0,19.0232836 0.280430669,19.6555821 0.728848287,20.1302761 C0.737670473,20.1401493 0.740437194,20.1523209 0.750355628,20.1617239 C0.753644372,20.1650149 0.757507341,20.1655373 0.760848287,20.1688806 C1.24951387,20.667291 1.92986623,20.9793134 2.68518108,20.9793134 L29.2632431,20.9793134 C30.0185579,20.9793134 30.6994845,20.6667687 31.1875759,20.1684104 C31.1908646,20.1655896 31.1947276,20.1645448 31.1980163,20.1617761 C31.2074127,20.1529478 31.2101272,20.1408284 31.2189494,20.1314254 C31.6679413,19.6567836 31.9483719,19.0239104 31.9483719,18.3242761 L31.9483719,2.67629851 L31.9477977,2.67629851 Z M21.4910016,9.6733209 L30.697814,2.03402239 C30.788124,2.23028358 30.8415791,2.44691791 30.8415791,2.67624627 L30.8415791,18.3241716 C30.8415791,18.5315075 30.7986166,18.728291 30.7242284,18.9096642 L21.4910016,9.6733209 Z M29.2631909,1.1155597 C29.4951256,1.1155597 29.7138532,1.16847761 29.9126917,1.25780597 L15.9741599,12.8223284 L2.03562806,1.25780597 C2.23451876,1.16852985 2.45324633,1.1155597 2.68512887,1.1155597 L29.2631909,1.1155597 Z M1.22414356,18.909194 C1.1497553,18.7283955 1.10679282,18.5310373 1.10679282,18.3237015 L1.10679282,2.67629851 C1.10679282,2.44697015 1.16024796,2.23028358 1.25055791,2.03407463 L10.4573703,9.67337313 L1.22414356,18.909194 Z M2.68512887,19.8844403 C2.42954649,19.8844403 2.19150408,19.8182537 1.97778793,19.7113731 L11.3079543,10.3784925 L15.6188189,13.9553358 C15.721292,14.0407985 15.8479869,14.083791 15.9741599,14.083791 C16.1003328,14.083791 16.2270277,14.0407985 16.3295008,13.9553358 L20.6403654,10.3784925 L29.9705318,19.7113731 C29.7567635,19.818306 29.5188254,19.8844403 29.2631387,19.8844403 L2.68512887,19.8844403 Z" id="Shape"></path>
                            </g>
                        </g>
                    </g>
                </g>
            </g>
        </g>
    </g>
</svg>