<?xml version="1.0" encoding="UTF-8" standalone="no"?>
<svg width="20px" height="20px" viewBox="0 0 50 50" version="1.1" xmlns="http://www.w3.org/2000/svg" xmlns:xlink="http://www.w3.org/1999/xlink">
    <!-- Generator: Sketch 42 (36781) - http://www.bohemiancoding.com/sketch -->
    <title>printer</title>
    <desc>Created with Sketch.</desc>
    <defs></defs>
    <g id="Page-1" stroke="none" stroke-width="1" fill="none" fill-rule="evenodd">
        <g id="printer" fill-rule="nonzero" fill="#000000">
            <g id="Print-button">
                <g id="Print-button-top-right">
                    <g id="printer">
                        <g id="Artwork">
                            <g id="Group">
                                <path d="M50,34.887755 L50,16.6326531 C50,14.2040816 47.9535865,12.2244898 45.443038,12.2244898 L40.506329,12.2244898 L40.506329,2.92857143 C40.506329,1.31632653 39.1455695,0 37.478903,0 L12.5,0 C10.8333333,0 9.47257385,1.31632653 9.47257385,2.92857143 L9.47257385,12.2346939 L4.55696202,12.2346939 C2.0464135,12.2244898 0,14.2040816 0,16.6326531 L0,34.887755 C0,37.3163264 2.0464135,39.2959183 4.55696202,39.2959183 L9.48312238,39.2959183 L9.48312238,47.0714286 C9.48312238,48.6836736 10.8438818,50 12.5105485,50 L37.4894515,50 C39.1561182,50 40.5168777,48.6836736 40.5168777,47.0714286 L40.5168777,39.2959183 L45.443038,39.2959183 C47.9535865,39.2959183 50,37.3265307 50,34.887755 Z M12.0675106,2.92857143 C12.0675106,2.69387755 12.2679325,2.5 12.5105485,2.5 L37.4894515,2.5 C37.7320675,2.5 37.9324895,2.69387755 37.9324895,2.92857143 L37.9324895,12.2346939 L12.0675106,12.2346939 L12.0675106,2.92857143 Z M37.9324895,47.0714286 C37.9324895,47.3061224 37.7320675,47.5 37.4894515,47.5 L12.5105485,47.5 C12.2679325,47.5 12.0675105,47.3061224 12.0675105,47.0714286 L12.0675105,27.010204 L37.921941,27.010204 L37.921941,47.0714286 L37.9324895,47.0714286 Z" id="Shape"></path>
                                <path d="M39.2194092,24.510204 L10.7805907,24.510204 C10.0632911,24.510204 9.48312237,25.0714286 9.48312237,25.7653062 L9.48312237,36.7959183 L4.55696202,36.7959183 C3.47046412,36.7959183 2.58438817,35.9387755 2.58438817,34.887755 L2.58438817,16.6326531 C2.58438817,15.5816326 3.47046412,14.7244898 4.55696202,14.7244898 L45.4324895,14.7244898 C46.5189872,14.7244898 47.4050632,15.5816326 47.4050632,16.6326531 L47.4050632,34.887755 C47.4050632,35.9387755 46.5189872,36.7959183 45.4324895,36.7959183 L40.506329,36.7959183 L40.506329,25.7653062 C40.5168777,25.0714286 39.9367087,24.510204 39.2194092,24.510204 Z" id="Path"></path>
                                <path d="M32.3312238,36.010204 L17.6687764,36.010204 C16.9514768,36.010204 16.371308,36.5714286 16.371308,37.2653062 C16.371308,37.9591836 16.9514768,38.5204081 17.6687764,38.5204081 L32.320675,38.5204081 C33.0379748,38.5204081 33.6181435,37.9591836 33.6181435,37.2653062 C33.6181435,36.5714286 33.0379748,36.010204 32.3312238,36.010204 Z" id="Shape"></path>
                                <path d="M32.3312238,41.6734693 L17.6687764,41.6734693 C16.9514768,41.6734693 16.371308,42.2346938 16.371308,42.9285714 C16.371308,43.622449 16.9514768,44.1836736 17.6687764,44.1836736 L32.320675,44.1836736 C33.0379748,44.1836736 33.6181435,43.622449 33.6181435,42.9285714 C33.6181435,42.2346938 33.0379748,41.6734693 32.3312238,41.6734693 Z" id="Shape"></path>
                                <path d="M32.3312238,30.3367348 L17.6687764,30.3367348 C16.9514768,30.3367348 16.371308,30.8979593 16.371308,31.5918367 C16.371308,32.2857143 16.9514768,32.8469388 17.6687764,32.8469388 L32.320675,32.8469388 C33.0379748,32.8469388 33.6181435,32.2857143 33.6181435,31.5918367 C33.6181435,30.8979593 33.0379748,30.3367348 32.3312238,30.3367348 Z" id="Shape"></path>
                            </g>
                        </g>
                    </g>
                </g>
            </g>
        </g>
    </g>
</svg>
