<?xml version="1.0" encoding="UTF-8" standalone="no"?>
<svg width="21px" height="21px" viewBox="0 0 21 21" version="1.1" xmlns="http://www.w3.org/2000/svg" xmlns:xlink="http://www.w3.org/1999/xlink">
    <!-- Generator: Sketch 42 (36781) - http://www.bohemiancoding.com/sketch -->
    <title>share</title>
    <desc>Created with Sketch.</desc>
    <defs></defs>
    <g id="Iconography" stroke="none" stroke-width="1" fill="none" fill-rule="evenodd">
        <g id="Icon-set" transform="translate(-109.000000, -121.000000)" fill-rule="nonzero" fill="#010002">
            <g id="Share" transform="translate(109.000000, 121.000000)">
                <g id="share">
                    <g id="Capa_1">
                        <path d="M17.1356872,13.3449241 C15.909734,13.3449241 14.8283681,13.9240633 14.1218745,14.8109367 L7.56898085,11.4880633 C7.65476809,11.1708038 7.71642766,10.843 7.71642766,10.4980063 C7.71642766,10.122443 7.64319574,9.76885443 7.54101064,9.42479114 L14.0649957,6.11724684 C14.7676021,7.04425949 15.8769383,7.65015823 17.1366255,7.65015823 C19.2704936,7.65015823 20.9966489,5.93856962 20.9966489,3.82461392 C20.9966936,1.71256329 19.2704936,0 17.1366702,0 C15.0076277,0 13.2795511,1.71256329 13.2795511,3.82456962 C13.2795511,4.17053797 13.3412553,4.49927215 13.4279809,4.81750633 L6.87602553,8.14037975 C6.16859362,7.25257595 5.0852617,6.67153165 3.85738723,6.67153165 C1.72544043,6.67153165 0.000268085107,8.38502532 0.000268085107,10.4980063 C0.000268085107,12.6109873 1.72548511,14.3235506 3.85738723,14.3235506 C5.11899574,14.3235506 6.22739362,13.7157468 6.93285957,12.7878038 L13.4539404,16.0953481 C13.3517553,16.4384367 13.2775851,16.7949051 13.2775851,17.171443 C13.2775851,19.2844241 15.0056617,20.9969873 17.1347043,20.9969873 C19.2685723,20.9969873 20.9947277,19.2844241 20.9947277,17.171443 C20.9957106,15.056557 19.2695553,13.3449241 17.1356872,13.3449241 Z" id="Shape"></path>
                    </g>
                </g>
            </g>
        </g>
    </g>
</svg>