<?xml version="1.0" encoding="UTF-8" standalone="no"?>
<svg width="32px" height="32px" viewBox="0 0 32 32" version="1.1" xmlns="http://www.w3.org/2000/svg" xmlns:xlink="http://www.w3.org/1999/xlink">
    <!-- Generator: Sketch 42 (36781) - http://www.bohemiancoding.com/sketch -->
    <title>whatsapp</title>
    <desc>Created with Sketch.</desc>
    <defs></defs>
    <g id="Iconography" stroke="none" stroke-width="1" fill="none" fill-rule="evenodd">
        <g id="Icon-set" transform="translate(-129.000000, -277.000000)" fill-rule="nonzero" fill="#7AD06D">
            <g id="Dropdown" transform="translate(109.000000, 152.000000)">
                <g id="Group-7" transform="translate(20.000000, 125.000000)">
                    <g id="whatsapp">
                        <g id="Layer_1">
                            <g id="Group">
                                <path d="M15.1162959,0.0184821002 C6.68257757,0.420047733 0.0271885442,7.44370406 0.0527732697,15.886969 C0.0605632458,18.4585776 0.681393795,20.8858425 1.77657279,23.0305298 L0.0950835322,31.1926683 C0.00412410501,31.6341766 0.402329356,32.0207733 0.840935561,31.9169069 L8.83887351,30.0220334 C10.8936706,31.0455752 13.201642,31.6367733 15.6442578,31.674043 C24.2643246,31.8057088 31.4519523,24.9611456 31.7206301,16.3442864 C32.0086301,7.1075895 24.3852983,-0.422949881 15.1162959,0.0184821002 Z M24.6595513,24.6069308 C22.3172888,26.9491933 19.2030549,28.2391217 15.8906348,28.2391217 C13.9510835,28.2391217 12.0941671,27.8039523 10.371284,26.9457566 L9.25747017,26.3909117 L4.35390931,27.5526874 L5.38608115,22.5421289 L4.83734606,21.4675704 C3.94294988,19.7159714 3.48945107,17.8218616 3.48945107,15.8379379 C3.48945107,12.5254415 4.77937947,9.41128401 7.121642,7.06894511 C9.44297852,4.74760859 12.608,3.4366778 15.890864,3.4366778 C19.203284,3.43675418 22.3173652,4.72668258 24.6596277,7.06886874 C27.0018902,9.41113126 28.2918186,12.5252888 28.291895,15.8377088 C28.2918186,19.1206492 26.9808878,22.2856706 24.6595513,24.6069308 Z" id="Shape"></path>
                                <path d="M23.5770501,19.2726301 L20.5092506,18.3917518 C20.1059284,18.2759714 19.671599,18.3903771 19.3777184,18.6898329 L18.6275131,19.4541671 C18.311179,19.7764582 17.831179,19.8800191 17.412506,19.7106253 C15.9612792,19.1233222 12.9085251,16.4090501 12.1289165,15.0513795 C11.904,14.6597422 11.9411933,14.1701193 12.2173556,13.8127733 L12.8723246,12.9654224 C13.1289356,12.633432 13.1830835,12.1875704 13.0133842,11.8037995 L11.7226921,8.88462053 C11.413537,8.18543198 10.5200573,7.98189976 9.93634368,8.47557041 C9.08013365,9.1997327 8.06422912,10.3001814 7.94073508,11.5193126 C7.72299761,13.6687351 8.64481146,16.3782721 12.130673,19.6317327 C16.1577852,23.3903962 19.3826826,23.886969 21.4823866,23.3783294 C22.6733365,23.0898711 23.6250883,21.9334415 24.2257566,20.9865776 C24.6352649,20.3410024 24.3119045,19.4836468 23.5770501,19.2726301 Z" id="Shape"></path>
                            </g>
                        </g>
                    </g>
                </g>
            </g>
        </g>
    </g>
</svg>